<?xml version="1.0" encoding="utf-8"?><svg xmlns="http://www.w3.org/2000/svg" xmlns:xlink="http://www.w3.org/1999/xlink"><symbol viewBox="0 0 75 70" id="burger" xmlns="http://www.w3.org/2000/svg"><path d="M70.78 46.7H4.8C2.51 46.7.7 48.6.7 51v3.5c0 2.4 1.9 4.3 4.11 4.3h.9v1.1c0 5.5 4.31 10.1 9.63 10.1h44.7c5.32 0 9.63-4.5 9.63-10.1v-1.1h.9c2.31 0 4.12-1.9 4.12-4.3V51a4 4 0 0 0-3.91-4.3Zm-3.91 13.2c0 3.9-3.01 7-6.72 7H15.34c-3.71 0-6.72-3.2-6.72-7v-1.1h58.25v1.1Zm5.1-5.4c0 .7-.6 1.3-1.2 1.3H4.72c-.7 0-1.2-.6-1.2-1.3V51c0-.7.6-1.3 1.2-1.3h65.97c.7 0 1.2.6 1.2 1.3.1 0 .1 3.5.1 3.5ZM16.34 38.4l5.41 4.1 5.32-4.1 5.31 4.1 5.31-4.1 5.42 4.1 5.31-4.1 5.31 4.1 5.42-4.1 5.31 4.1 6.22-4.7-1.7-2.5-4.52 3.4-5.31-4.1-5.42 4.1-5.31-4.1-5.31 4.1-5.42-4.1-5.31 4.1-5.31-4.1-5.32 4.1-5.41-4.1-5.31 4.1-4.52-3.4-1.7 2.5 6.22 4.7 5.3-4.1Zm-7.62-6.9h60.95c0-.6.1-1.2.1-1.9v-1.2C69.07 12.7 55.04 0 37.8 0 20.45 0 6.41 12.7 5.71 28.5v1.2c0 .6 0 1.2.1 1.8h2.91ZM37.79 3c15.64 0 28.47 11.3 29.08 25.5H8.72C9.32 14.4 22.15 3 37.79 3Z"/><path d="M37.8 17.3c1.05 0 1.9-.9 1.9-2s-.85-2-1.9-2c-1.06 0-1.91.9-1.91 2s.85 2 1.9 2Zm-7.83-5.1c1.06 0 1.9-.9 1.9-2s-.84-2-1.9-2c-1.05 0-1.9.9-1.9 2s.85 2 1.9 2Zm15.54 0c1.05 0 1.9-.9 1.9-2s-.85-2-1.9-2c-1.05 0-1.9.9-1.9 2s.85 2 1.9 2Z"/></symbol><symbol viewBox="0 0 21 20" id="heart" xmlns="http://www.w3.org/2000/svg"><path d="M10.3 19a.9.9 0 0 1-.8-.4c-5.4-6.1-6.7-7.5-7-7.9A5.4 5.4 0 0 1 6.9 2c1.3 0 2.5.5 3.5 1.3a5.46 5.46 0 0 1 9 4.1c0 1.3-.5 2.5-1.3 3.4l-7 7.9c-.2.2-.4.3-.8.3Zm-6-9.5c.3.4 3.5 4 6.1 6.9l6.2-7c.5-.5.7-1.2.7-2 0-1.8-1.5-3.3-3.3-3.3-1 0-2 .5-2.7 1.3-.3.3-.6.4-.9.4-.3 0-.6-.2-.8-.4-.7-.8-1.7-1.3-2.7-1.3-1.8 0-3.3 1.5-3.3 3.3-.1.9.3 1.6.7 2.1-.1 0-.1 0 0 0Z"/></symbol><symbol viewBox="0 0 75 72" id="home" xmlns="http://www.w3.org/2000/svg"><path d="M29.62 65h16.06V41.2H29.62V65Zm2.91-20.9h10.14v18H32.53v-18Z"/><path d="m72.9 39.3 2.1-2.1-9.94-9.9V0H51.1v13.6L37.45 0 0 37.2l2.1 2.1 7.84-7.8v37.6H5.92V72h64.16v-2.9h-5.12V31.5l7.93 7.8ZM62.04 69.1h-49.2V28.5l24.6-24.4 24.6 24.4v40.6Zm0-44.7-7.93-7.9V2.9h7.93v21.5Z"/><path d="M29.82 27.1c0 4.3 3.51 7.7 7.73 7.7a7.8 7.8 0 0 0 7.83-7.7c0-4.3-3.51-7.7-7.83-7.7a7.72 7.72 0 0 0-7.73 7.7Zm7.83-5a5 5 0 0 1 5.02 4.9c0 2.7-2.2 4.9-5.02 4.9a5 5 0 0 1-5.02-4.9c0-2.7 2.2-4.9 5.02-4.9ZM19.98 41.2h-3.01v3.9h3.01v-3.9Zm5.92 0h-3v3.9h3v-3.9Zm-5.92 6h-3.01v3.9h3.01v-3.9Zm5.92 0h-3v3.9h3v-3.9Zm26.1-6h-3v3.9h3v-3.9Zm5.93 0h-3.01v3.9h3.01v-3.9Zm-5.93 6h-3v3.9h3v-3.9Zm5.93 0h-3.01v3.9h3.01v-3.9Z"/></symbol><symbol viewBox="0 0 21 20" id="home-simple" xmlns="http://www.w3.org/2000/svg"><path d="m10.4 3-6 5.8V15h12V8.8l-6-5.8Zm5 11h-10V9.2l5-4.8 5 4.8V14Z"/><path d="M8.4 13h1v-2.5h2V13h1V9.5h-4V13Z"/></symbol><symbol viewBox="0 0 115 33" id="htmlacademy" xmlns="http://www.w3.org/2000/svg"><path fill-rule="evenodd" clip-rule="evenodd" d="M8 6.2c.8-1 2-1.7 3.6-1.7 2.7 0 4.6 1.9 4.5 4.9v6.1h-2V9.8c0-1.8-1.1-3.2-2.9-3.2-2 0-3.3 1.5-3.3 3.6v5.3h-2V0h2v6.2H8Zm-8 9.3v-2.6h2.5v2.6H0ZM26.6 4.8h-4.8V1.1h-2v3.8h-1.9v2h1.9v6c0 1.7 1 2.7 2.7 2.7h4.1v-2h-3.7c-.7 0-1.1-.4-1.1-1.1V6.8h4.8v-2Zm11 1.9c.6-1.3 1.9-2.1 3.5-2.1 2.5 0 4 1.8 3.9 4.3v6.5h-2V9.1c0-1.6-.9-2.6-2.4-2.6-1.2 0-2.6.9-2.6 3.3v5.6h-2V9.1c0-1.6-.9-2.6-2.4-2.6C32 6.5 31 8 31 10v5.4h-2V4.8h1.9v1.6h.1c.6-1 1.7-1.8 3.1-1.8 1.6 0 2.8.9 3.4 2.1h.1Zm10.2 6c0 1.7 1 2.7 2.8 2.7h2v-2h-1.7c-.7 0-1.1-.4-1.1-1.1V0h-2v12.7ZM25 17.9c1.7 0 3 .7 3.9 1.8v-1.5h2v10.6h-2v-1.6h-.1c-.8 1.1-2 1.9-3.8 1.9-3.1 0-5.4-2.3-5.4-5.6s2.3-5.6 5.4-5.6Zm-3.3 5.6c0 2 1.4 3.6 3.6 3.6s3.6-1.7 3.6-3.6c0-2-1.4-3.6-3.6-3.6s-3.6 1.6-3.6 3.6ZM44.2 22c-.5-2.4-2.6-4.1-5.4-4.1a5.4 5.4 0 0 0-5.6 5.6c0 3.1 2.2 5.6 5.6 5.6 2.8 0 4.9-1.8 5.4-4.2h-2.1a3.4 3.4 0 0 1-3.3 2.3c-2.2 0-3.6-1.6-3.6-3.6s1.4-3.6 3.6-3.6c1.6 0 2.8 1 3.3 2.2h2.1V22Zm7-4.1c1.7 0 3 .7 3.9 1.8v-1.5h2v10.6h-2v-1.6H55c-.8 1.1-2 1.9-3.8 1.9-3.1 0-5.4-2.3-5.4-5.6s2.3-5.6 5.4-5.6Zm-3.3 5.6c0 2 1.4 3.6 3.6 3.6 2.1 0 3.6-1.7 3.6-3.6 0-2-1.4-3.6-3.6-3.6s-3.6 1.6-3.6 3.6Zm20.8-3.7c-.9-1.1-2.2-1.9-3.9-1.9-3.1 0-5.4 2.3-5.4 5.6s2.2 5.6 5.4 5.6c1.7 0 3-.8 3.8-1.8h.1v1.5h2V13.4h-2v6.4Zm-3.6 7.3c-2.2 0-3.6-1.6-3.6-3.6s1.4-3.6 3.6-3.6 3.6 1.6 3.6 3.6c-.1 2-1.5 3.6-3.6 3.6Zm7.7-3.6c0-3.1 2.2-5.6 5.5-5.6 3.5 0 5.7 2.7 5.5 6.3H75c.1 1.6 1.5 2.9 3.4 2.9 1.4 0 2.5-.6 3-1.6h2.1c-.7 2.3-2.7 3.6-5.2 3.6-3.4 0-5.5-2.6-5.5-5.6Zm8.8-1.1c-.3-1.6-1.6-2.6-3.3-2.6-1.7 0-2.9 1.1-3.2 2.6h6.5Zm16.6-4.5c-1.6 0-2.9.8-3.6 2h-.1c-.6-1.2-1.8-2-3.4-2-1.4 0-2.5.7-3.1 1.8v-1.5h-1.9v10.6h2v-5.4c0-2 1-3.4 2.6-3.5 1.5 0 2.4 1 2.4 2.6v6.3h2v-5.6c0-2.4 1.4-3.3 2.6-3.3 1.5 0 2.4 1 2.4 2.6v6.3h2v-6.5c.1-2.6-1.4-4.4-3.9-4.4Zm7.6.2 3.6 8.9 3.4-8.9h2.1l-4.7 12.2c-.7 1.8-1.7 2.6-3.5 2.6h-2.5v-2h2.5c1 0 1.4-.3 1.7-1.2l-4.8-11.6h2.2Z"/></symbol><symbol viewBox="0 0 19 19" id="search" xmlns="http://www.w3.org/2000/svg"><path d="m18.9 17-3.7-3.67c1-1.3 1.7-2.98 1.7-4.87A8 8 0 0 0 8.9.5C4.5.5.9 4.18.9 8.56a8 8 0 0 0 12.9 6.26l3.7 3.68 1.4-1.5Zm-10-2.48a6 6 0 0 1-6-5.96 6 6 0 0 1 12 0 6 6 0 0 1-6 5.96Z"/></symbol><symbol viewBox="0 0 64 76" id="souvenir" xmlns="http://www.w3.org/2000/svg"><path d="M61.1 22.46H36.3c13.8-6.9 14.9-11.3 14.4-13.7-1.2-4.01-5.7-7.01-10-5.41-5.6 2.1-7.1 10.4-8.6 16.41-2-6.1-3.8-13.8-8.2-17.71-1.3-1.1-3.1-2.3-5.8-2-4 .4-9.8 5.4-7.5 11 2.3 5.4 9.7 8.81 14.6 11.51H2.9a2.9 2.9 0 0 0-2.9 2.9v11.31c0 1.6 1.3 2.9 2.9 2.9h.3V76H61V39.57h.1c1.6 0 2.9-1.3 2.9-2.9v-11.3c0-1.6-1.3-2.9-2.9-2.9ZM42.4 5.86c2.1-.3 5 1.3 5.3 3.2.4 2.8-3.4 5.3-5.1 6.4-2.5 1.7-4.9 2.6-7.3 4.1.9-3.7 2.5-13 7.1-13.7Zm-22.9 10c-2.2-1.5-6.5-4.4-6.4-7.8.1-3.61 5.7-6.61 8.8-3.91 3.9 3.4 5.7 11.1 7.1 16.61-3.2-1.5-6.3-2.8-9.5-4.9Zm6 57.14H6.1V39.57h19.4V73Zm0-36.53H3v-11h22.5v11Zm10.2 0V73h-7.2V25.57h7.2v10.9ZM58 73H38.6V39.57H58V73Zm2.9-36.53H38.6v-11h22.3v11Z"/></symbol><symbol viewBox="0 0 19 16" id="telegram" xmlns="http://www.w3.org/2000/svg"><path d="M17.29.1 1.34 6.25c-1.09.43-1.08 1.04-.2 1.31l4.1 1.28 9.47-5.98c.44-.27.85-.12.52.18L7.55 9.96l-.28 4.22c.41 0 .6-.19.83-.41l1.99-1.93 4.13 3.05c.77.42 1.31.2 1.5-.7l2.72-12.8C18.72.27 18-.23 17.29.09Z"/></symbol><symbol viewBox="0 0 25 14" id="vk" xmlns="http://www.w3.org/2000/svg"><path fill-rule="evenodd" clip-rule="evenodd" d="M23.95.95c.17-.55 0-.95-.8-.95h-2.62c-.67 0-.98.35-1.14.73 0 0-1.34 3.2-3.23 5.27-.61.6-.89.8-1.22.8-.17 0-.42-.2-.42-.74V.95c0-.66-.19-.95-.74-.95H9.65c-.42 0-.67.3-.67.6 0 .61.95.76 1.05 2.5v3.8c0 .84-.16.99-.5.99-.88 0-3.05-3.21-4.33-6.89-.25-.71-.5-1-1.17-1H1.4C.65 0 .5.35.5.73c0 .68.89 4.07 4.14 8.55C6.81 12.34 9.87 14 12.65 14c1.67 0 1.88-.37 1.88-1v-2.32c0-.73.16-.88.68-.88.4 0 1.06.2 2.62 1.67C19.61 13.22 19.9 14 20.9 14h2.63c.75 0 1.13-.37.91-1.1-.24-.72-1.09-1.77-2.22-3.02-.6-.7-1.53-1.47-1.8-1.86-.4-.49-.28-.7 0-1.14 0 0 3.2-4.43 3.53-5.93Z"/></symbol><symbol viewBox="0 0 23 18" id="youtube" xmlns="http://www.w3.org/2000/svg"><path d="M19.1.5H3.68C1.81.5.5 2.1.5 3.9V14c0 1.9 1.31 3.5 3.17 3.5h15.66c1.64 0 3.17-1.6 3.17-3.4V3.9C22.28 2.1 20.97.5 19.1.5ZM8.17 13.04V4.96L15.5 9l-7.34 4.04Z"/></symbol></svg>